<?xml version="1.0" encoding="iso-8859-1"?>
<!-- Uploaded to: SVG Repo, www.svgrepo.com, Generator: SVG Repo Mixer Tools -->
<svg fill="#000000" height="800px" width="800px" version="1.1" id="Layer_1" xmlns="http://www.w3.org/2000/svg" xmlns:xlink="http://www.w3.org/1999/xlink" 
	 viewBox="0 0 512 512" xml:space="preserve">
<g>
	<g>
		<path d="M433.6,352H190.4V64c0-35.2-28.8-64-64-64s-64,28.8-64,64c0,9.6,6.4,16,16,16s16-8,16-16c0-17.6,14.4-32,32-32
			c17.6,0,32,14.4,32,32v304c0,75.2,70.4,144,147.2,144s144-67.2,144-144C449.6,358.4,443.2,352,433.6,352z M305.6,480
			c-54.4,0-105.6-44.8-113.6-96h224C408,432,363.2,480,305.6,480z"/>
	</g>
</g>
</svg>