<?xml version="1.0" encoding="iso-8859-1"?>
<!-- Uploaded to: SVG Repo, www.svgrepo.com, Generator: SVG Repo Mixer Tools -->
<svg fill="#000000" height="800px" width="800px" version="1.1" id="Layer_1" xmlns="http://www.w3.org/2000/svg" xmlns:xlink="http://www.w3.org/1999/xlink" 
	 viewBox="0 0 491.527 491.527" xml:space="preserve">
<g>
	<g>
		<circle cx="255.414" cy="244.374" r="93.076"/>
		<path d="M109.448,393.597l-4.869-26.383c-1.505-7.762-28.974-88.248-30.341-95.647l-11.167-60.549
			c-1.403-7.593,27.735-23.107,22.487-51.574c-0.02-0.108-0.046-0.22-0.067-0.328h0.01l-13.01-70.543
			c-0.599-3.246-3.717-5.396-6.963-4.797c-3.246,0.599-5.396,3.717-4.797,6.963l13.01,70.549l-8.448,1.556L52.283,92.3
			c-0.599-3.246-3.717-5.396-6.963-4.797c-3.246,0.599-5.396,3.717-4.797,6.963l13.01,70.543l-8.448,1.556l-13.01-70.538
			c-0.599-3.246-3.717-5.396-6.963-4.797c-3.246,0.599-5.396,3.717-4.797,6.963l13.01,70.543l-8.448,1.556L11.861,99.755
			c-0.599-3.246-3.717-5.396-6.963-4.797c-3.246,0.599-5.396,3.717-4.797,6.963l13.01,70.543c0.021,0.107,0.031,0.22,0.051,0.328
			c5.248,28.462,38.006,32.563,39.404,40.156l11.167,60.554c1.372,7.445,4.357,92.488,5.806,100.326l4.751,25.764
			c0.046,0.358,0.021,0.707,0.087,1.065c1.792,9.728,11.136,16.159,20.864,14.367c9.728-1.792,16.159-11.136,14.367-20.864
			C109.581,393.965,109.494,393.791,109.448,393.597z"/>
		<path d="M464.172,76.3c-20.183-2.442-42.143,41.861-46.812,80.456c-3.477,28.733,26.563,42.414,25.636,50.079
			c-2.534,20.961-3.41,28.191-7.398,61.128c-0.911,7.516-23.419,89.579-24.376,97.495l-3.149,26.01
			c-0.067,0.353-0.189,0.681-0.236,1.039c-1.188,9.82,5.811,18.744,15.631,19.937c9.82,1.188,18.744-5.811,19.937-15.631
			c0.026-0.2-0.005-0.394,0.01-0.594l3.226-26.634c0.881-7.859-1.341-92.872-0.435-100.342c4.234-34.975,4.782-39.521,7.398-61.122
			c0.927-7.665,33.367-13.788,36.844-42.522C495.112,127.004,484.35,78.742,464.172,76.3z"/>
		<path d="M255.414,97.635c-81.039,0-146.739,65.7-146.739,146.739s65.7,146.739,146.739,146.739
			c81.044,0,146.739-65.7,146.739-146.739S336.453,97.635,255.414,97.635z M255.414,361.965
			c-64.947,0-117.591-52.649-117.591-117.591c0-64.947,52.649-117.591,117.591-117.591c64.947,0,117.591,52.649,117.591,117.591
			S320.356,361.965,255.414,361.965z"/>
	</g>
</g>
</svg>